<svg width="49" height="48" viewBox="0 0 49 48" fill="none" xmlns="http://www.w3.org/2000/svg">
<path d="M14.154 18.05C13.1513 18.05 12.2917 17.693 11.575 16.979C10.8583 16.265 10.5 15.4066 10.5 14.404C10.5 13.4013 10.857 12.5417 11.571 11.825C12.285 11.1083 13.1434 10.75 14.146 10.75C15.1487 10.75 16.0083 11.107 16.725 11.821C17.4417 12.535 17.8 13.3934 17.8 14.396C17.8 15.3987 17.443 16.2583 16.729 16.975C16.015 17.6917 15.1566 18.05 14.154 18.05ZM9.8 44C9.16667 44 8.625 43.8333 8.175 43.5C7.725 43.1667 7.5 42.6667 7.5 42C6.7 42 6 41.7 5.4 41.1C4.8 40.5 4.5 39.8 4.5 39V27.5C4.5 27.075 4.64375 26.7188 4.93125 26.4312C5.21875 26.1438 5.575 26 6 26H10.5V24.6103C10.5 23.4368 10.9167 22.4333 11.75 21.6C12.5833 20.7667 13.5897 20.35 14.769 20.35C15.3897 20.35 15.9833 20.4667 16.55 20.7C17.1167 20.9333 17.6167 21.2833 18.05 21.75L20.65 24.7C20.8833 24.9667 21.125 25.2083 21.375 25.425C21.625 25.6417 21.8833 25.8333 22.15 26H36.5V9.3C36.5 8.66863 36.2917 8.12745 35.875 7.67645C35.4583 7.22548 34.9333 7 34.3 7C33.9706 7 33.6549 7.03333 33.353 7.1C33.051 7.16667 32.7833 7.31667 32.55 7.55L29.95 10.15C30.1167 10.7167 30.1417 11.2917 30.025 11.875C29.9083 12.4583 29.7 13.0167 29.4 13.55L24.3 8.7C24.8478 8.3357 25.4348 8.10297 26.0609 8.0018C26.687 7.9006 27.3 7.96667 27.9 8.2L30.5 5.65C31 5.15 31.5757 4.75 32.2269 4.45C32.8783 4.15 33.5693 4 34.3 4C35.7596 4 36.9912 4.51667 37.9948 5.55C38.9983 6.58333 39.5 7.83333 39.5 9.3V26H43C43.425 26 43.7812 26.1438 44.0688 26.4312C44.3563 26.7188 44.5 27.075 44.5 27.5V39C44.5 39.8 44.1917 40.5 43.575 41.1C42.9583 41.7 42.2667 42 41.5 42C41.5 42.6667 41.2748 43.1667 40.8244 43.5C40.374 43.8333 39.8158 44 39.15 44H9.8ZM7.5 39H41.5V29H7.5V39Z" fill="#9A563A"/>
</svg>
