<svg width="101" height="100" viewBox="0 0 101 100" fill="none" xmlns="http://www.w3.org/2000/svg">
<g clip-path="url(#clip0_118_8018)">
<g clip-path="url(#clip1_118_8018)">
<path d="M49.9992 37.358C43.0287 37.358 37.3572 41.6105 37.3572 46.8396C37.3572 52.0686 43.0287 56.3211 49.9992 56.3211C56.9697 56.3211 62.6412 52.0686 62.6412 46.8396C62.6412 41.6105 56.9697 37.358 49.9992 37.358ZM49.9992 53.1606C44.8602 53.1606 40.5177 50.2655 40.5177 46.8396C40.5177 43.4136 44.8602 40.5185 49.9992 40.5185C55.1382 40.5185 59.4807 43.4136 59.4807 46.8396C59.4807 50.2655 55.1382 53.1606 49.9992 53.1606Z" fill="#A3A2A2" stroke="#A3A2A2" stroke-width="1.22"/>
<path d="M49.9992 59.4816C43.901 59.4816 38.9374 63.3816 38.9374 68.173C38.9374 72.9643 43.901 76.8644 49.9992 76.8644C56.0974 76.8644 61.061 72.9643 61.061 68.173C61.061 63.3816 56.0974 59.4816 49.9992 59.4816ZM49.9992 73.7038C45.7167 73.7038 42.0979 71.1707 42.0979 68.173C42.0979 65.1752 45.7167 62.6421 49.9992 62.6421C54.2817 62.6421 57.9005 65.1752 57.9005 68.173C57.9005 71.1707 54.2817 73.7038 49.9992 73.7038Z" fill="#A3A2A2" stroke="#A3A2A2" stroke-width="1.22"/>
<path d="M49.9992 80.0249C44.7702 80.0249 40.5177 83.5694 40.5177 87.9262C40.5177 92.2829 44.7702 95.8274 49.9992 95.8274C55.2283 95.8274 59.4807 92.2829 59.4807 87.9262C59.4807 83.5694 55.2283 80.0249 49.9992 80.0249ZM49.9992 92.6669C46.5132 92.6669 43.6782 90.5399 43.6782 87.9262C43.6782 85.3124 46.5132 83.1854 49.9992 83.1854C53.4853 83.1854 56.3202 85.3124 56.3202 87.9262C56.3202 90.5399 53.4853 92.6669 49.9992 92.6669Z" fill="#A3A2A2" stroke="#A3A2A2" stroke-width="1.22"/>
<path d="M97.9741 45.6244C88.3077 53.6821 80.024 73.0133 80.024 83.1854V98.988H83.1846V83.1854C83.1846 73.8746 91.1016 55.4678 100 48.0548L97.9741 45.6244Z" fill="#A3A2A2" stroke="#A3A2A2" stroke-width="1.22"/>
<path d="M98.2807 21.723L70.1695 35.7778H67.5764L62.6412 34.5436V32.4908L75.2643 31.4384C78.8198 31.1429 81.6043 28.1167 81.6043 24.5485C81.6043 23.485 81.4731 22.4199 81.2139 21.3801L80.2468 17.5116L83.5922 15.2819L98.8306 16.8053L99.1451 13.6606L84.0331 12.1498L80.024 6.80699V1.01221H76.8635V7.85944L80.9169 13.2655L76.6407 16.1178L78.1467 22.1449C78.3426 22.9351 78.4438 23.7441 78.4438 24.5485C78.4438 26.4859 76.933 28.1294 75.002 28.289L59.4807 29.5832V37.012L66.9996 38.8893L70.9154 38.9383L99.6934 24.5485L98.2807 21.723Z" fill="#A3A2A2" stroke="#A3A2A2" stroke-width="1.22"/>
<path d="M2.0243 45.6244L0 48.0548C8.89682 55.4678 16.8139 73.8746 16.8139 83.1854V98.988H19.9744V83.1854C19.9744 73.0133 11.6907 53.6821 2.0243 45.6244Z" fill="#A3A2A2" stroke="#A3A2A2" stroke-width="1.22"/>
<path d="M40.5177 32.6173H45.7294C47.7647 32.6173 49.7748 32.0831 51.5384 31.0734L61.061 25.6326V19.9752H57.9005C55.2867 19.9752 53.1597 17.8482 53.1597 15.2345C53.1597 12.6207 55.2867 10.4937 57.9005 10.4937H59.9595L65.8017 6.5984V1.01221H62.6412V4.90753L59.0019 7.33322H57.9005C53.5437 7.33322 49.9992 10.8777 49.9992 15.2345C49.9992 19.5912 53.5437 23.1357 57.9005 23.1357V23.7995L49.9676 28.33C48.6813 29.068 47.2148 29.4568 45.7294 29.4568H39.2946C35.3771 27.7833 32.8266 24.0681 32.6512 19.8267C37.1107 19.0571 40.5177 15.1713 40.5177 10.4937V1.01221H37.3572V10.4937C37.3572 13.9798 34.5222 16.8147 31.0362 16.8147C27.5501 16.8147 24.7152 13.9798 24.7152 10.4937V1.01221H21.5546V10.4937C21.5546 10.5633 21.5641 10.6312 21.5657 10.7007L0.786963 13.67L1.23417 16.7989L22.163 13.8091C23.3356 16.9364 26.1105 19.2799 29.4875 19.8378C29.6598 25.0984 32.6638 29.7618 37.3556 32.0642V34.5436L32.4221 35.7778H29.8289L1.71773 21.723L0.303406 24.5501L29.083 38.9383H32.8108L40.5177 37.012V32.6173Z" fill="#A3A2A2" stroke="#A3A2A2" stroke-width="1.22"/>
</g>
</g>
<defs>
<clipPath id="clip0_118_8018">
<rect width="100" height="100" fill="white" transform="translate(0.5)"/>
</clipPath>
<clipPath id="clip1_118_8018">
<rect width="100" height="100" fill="white"/>
</clipPath>
</defs>
</svg>
