<svg width="128" height="31" viewBox="0 0 128 31" fill="none" xmlns="http://www.w3.org/2000/svg">
<path d="M14.3629 30.6415C12.5869 30.3327 10.8365 29.7213 9.11197 28.8076C7.38739 27.8938 5.84942 26.6711 4.49807 25.1396C3.14672 23.6081 2.0592 21.7612 1.23552 19.5991C0.41184 17.4369 0 14.9272 0 12.0701V11.684C0 11.4009 0.109395 11.1499 0.328185 10.9311C0.546975 10.7123 0.797941 10.6029 1.08108 10.6029H1.46718C2.8314 10.6029 4.28571 10.8668 5.83012 11.3944C7.37452 11.9221 8.73874 12.5978 9.92278 13.4215C10.1287 11.388 10.6435 9.28374 11.4672 7.10871C12.2909 4.93368 13.2947 2.98387 14.4788 1.25929C14.7362 0.89893 15.0579 0.71875 15.444 0.71875C15.8301 0.71875 16.1519 0.89893 16.4093 1.25929C17.5933 2.98387 18.5972 4.93368 19.4208 7.10871C20.2445 9.28374 20.7593 11.388 20.9652 13.4215C22.1493 12.6493 23.5135 11.9864 25.0579 11.433C26.6023 10.8796 28.0566 10.6029 29.4208 10.6029H29.8069C30.0901 10.6029 30.3411 10.7123 30.5598 10.9311C30.7786 11.1499 30.888 11.4009 30.888 11.684V12.0701C30.888 14.9272 30.4762 17.4369 29.6525 19.5991C28.8288 21.7612 27.7413 23.6081 26.39 25.1396C25.0386 26.6711 23.5006 27.8938 21.7761 28.8076C20.0515 29.7213 18.3012 30.3327 16.5251 30.6415C16.242 30.693 15.8816 30.7188 15.444 30.7188C15.0064 30.7188 14.6461 30.693 14.3629 30.6415ZM15.7529 28.4408C15.4698 23.6789 14.0734 20.0624 11.5637 17.5913C9.05405 15.1203 5.98456 13.5759 2.35521 12.9581C2.30373 12.9581 2.30373 12.9581 2.35521 12.9581C2.68983 17.8745 4.14414 21.5617 6.71815 24.0199C9.29215 26.4781 12.3037 27.9517 15.7529 28.4408C15.7786 28.4665 15.7722 28.4729 15.7336 28.4601C15.695 28.4472 15.7014 28.4408 15.7529 28.4408ZM12.1622 14.8886C12.7542 15.4034 13.3526 16.0469 13.9575 16.8191C14.5624 17.5913 15.045 18.3121 15.4054 18.9813C15.7658 18.3121 16.2613 17.5913 16.8919 16.8191C17.5225 16.0469 18.1338 15.4034 18.7259 14.8886C18.8546 13.1641 18.5907 11.388 17.9344 9.56045C17.278 7.73291 16.4479 5.86676 15.444 3.96199C15.4183 3.93625 15.4183 3.93625 15.444 3.96199C14.4144 5.8925 13.5779 7.75865 12.9344 9.56045C12.2909 11.3623 12.0335 13.1383 12.1622 14.8886ZM16.7181 21.4523C17.027 22.4305 17.2973 23.415 17.529 24.406C17.7606 25.397 17.9408 26.5231 18.0695 27.7844C19.2793 27.3468 20.4762 26.7612 21.6602 26.0276C22.8443 25.294 23.9189 24.3352 24.8842 23.1512C25.8494 21.9671 26.6602 20.5386 27.3166 18.8655C27.973 17.1924 28.3784 15.2233 28.5328 12.9581C28.5328 12.9067 28.5328 12.9067 28.5328 12.9581C25.8044 13.3957 23.3977 14.3674 21.3127 15.8732C19.2278 17.379 17.6963 19.2387 16.7181 21.4523Z" fill="white"/>
<path d="M44.6272 9.13091C45.8277 9.13091 46.8171 9.2757 47.5953 9.56528C48.3796 9.85485 48.9617 10.2922 49.3418 10.8774C49.7219 11.4626 49.9119 12.2016 49.9119 13.0945C49.9119 13.6978 49.7973 14.2256 49.568 14.6781C49.3388 15.1305 49.0372 15.5136 48.6631 15.8273C48.2891 16.141 47.8849 16.3974 47.4505 16.5965L51.3417 22.3609H48.2288L45.0706 17.2843H43.5775V22.3609H40.7722V9.13091H44.6272ZM44.4281 11.4294H43.5775V15.0039H44.4824C45.4114 15.0039 46.075 14.85 46.4732 14.5423C46.8774 14.2286 47.0795 13.7701 47.0795 13.1669C47.0795 12.5395 46.8623 12.093 46.428 11.8276C45.9996 11.5621 45.333 11.4294 44.4281 11.4294Z" fill="white"/>
<path d="M62.4795 22.3609H54.86V9.13091H62.4795V11.4294H57.6653V14.3342H62.1447V16.6327H57.6653V20.0443H62.4795V22.3609Z" fill="white"/>
<path d="M77.4813 9.13091L72.9838 22.3609H69.9252L65.4368 9.13091H68.2692L70.7577 17.0037C70.7999 17.1365 70.8693 17.3868 70.9658 17.7548C71.0624 18.1168 71.1589 18.5029 71.2554 18.9131C71.358 19.3173 71.4274 19.6521 71.4636 19.9176C71.4997 19.6521 71.5631 19.3173 71.6536 18.9131C71.7501 18.5089 71.8436 18.1258 71.9341 17.7639C72.0306 17.3959 72.1 17.1425 72.1422 17.0037L74.6489 9.13091H77.4813Z" fill="white"/>
<path d="M89.1077 22.3609L88.1485 19.2118H83.3253L82.3661 22.3609H79.3436L84.013 9.07662H87.4427L92.1302 22.3609H89.1077ZM87.4789 16.859L86.5197 13.7822C86.4593 13.5771 86.3779 13.3147 86.2753 12.9949C86.1788 12.6692 86.0793 12.3404 85.9767 12.0086C85.8802 11.6707 85.8018 11.3781 85.7414 11.1308C85.6811 11.3781 85.5966 11.6858 85.488 12.0538C85.3855 12.4158 85.2859 12.7597 85.1894 13.0854C85.0929 13.4112 85.0235 13.6435 84.9813 13.7822L84.0311 16.859H87.4789Z" fill="white"/>
<path d="M100.761 22.3609H97.9561V11.4656H94.3635V9.13091H104.354V11.4656H100.761V22.3609Z" fill="white"/>
<path d="M119.084 22.3609H116.288V16.6508H111.048V22.3609H108.243V9.13091H111.048V14.3161H116.288V9.13091H119.084V22.3609Z" fill="white"/>
<path d="M124.286 22.3609V9.13091H127.091V22.3609H124.286Z" fill="white"/>
</svg>
