<svg width="48" height="48" viewBox="0 0 48 48" fill="none" xmlns="http://www.w3.org/2000/svg">
<path d="M7.5 44C7.075 44 6.71875 43.8563 6.43125 43.5688C6.14375 43.2812 6 42.925 6 42.5V24.6C6 24.425 6.00833 24.2563 6.025 24.0938C6.04167 23.9312 6.08333 23.7667 6.15 23.6L9.1 14.9C9.41903 13.8946 10.0571 13.185 11.0143 12.771C11.9714 12.357 12.9333 12.3667 13.9 12.8L22.3 16.5H25.5C25.925 16.5 26.2812 16.6446 26.5688 16.9337C26.8563 17.2229 27 17.5813 27 18.0087C27 18.4362 26.8563 18.7917 26.5688 19.075C26.2812 19.3583 25.925 19.5 25.5 19.5H22.25C22.05 19.5 21.85 19.4762 21.65 19.4285C21.45 19.3809 21.25 19.3214 21.05 19.25L15.8 16.95L13 25.4V42.5C13 42.925 12.8563 43.2812 12.5687 43.5688C12.2812 43.8563 11.925 44 11.5 44H7.5ZM15.654 9.3C14.6513 9.3 13.7917 8.943 13.075 8.229C12.3583 7.51497 12 6.65663 12 5.654C12 4.65133 12.357 3.79167 13.071 3.075C13.785 2.35833 14.6434 2 15.646 2C16.6487 2 17.5083 2.357 18.225 3.071C18.9417 3.78503 19.3 4.64337 19.3 5.646C19.3 6.64867 18.943 7.50833 18.229 8.225C17.515 8.94167 16.6566 9.3 15.654 9.3ZM20 37.5C19.575 37.5 19.2188 37.3554 18.9313 37.0662C18.6438 36.7771 18.5 36.4187 18.5 35.9913C18.5 35.5638 18.6438 35.2083 18.9313 34.925C19.2188 34.6417 19.575 34.5 20 34.5H40.5C40.925 34.5 41.2812 34.6446 41.5688 34.9338C41.8563 35.2229 42 35.5813 42 36.0088C42 36.4362 41.8563 36.7917 41.5688 37.075C41.2812 37.3583 40.925 37.5 40.5 37.5H20ZM39 32C38.1667 32 37.4583 31.7083 36.875 31.125C36.2917 30.5417 36 29.8333 36 29C36 28.1667 36.2917 27.4583 36.875 26.875C37.4583 26.2917 38.1667 26 39 26C39.8333 26 40.5417 26.2917 41.125 26.875C41.7083 27.4583 42 28.1667 42 29C42 29.8333 41.7083 30.5417 41.125 31.125C40.5417 31.7083 39.8333 32 39 32ZM25.5 31.5C24.675 31.5 23.9688 31.2063 23.3813 30.6187C22.7938 30.0312 22.5 29.325 22.5 28.5V25.5H20C19.575 25.5 19.2188 25.3554 18.9313 25.0663C18.6438 24.7771 18.5 24.4187 18.5 23.9913C18.5 23.5638 18.6438 23.2083 18.9313 22.925C19.2188 22.6417 19.575 22.5 20 22.5H24C24.425 22.5 24.7812 22.6438 25.0688 22.9312C25.3563 23.2188 25.5 23.575 25.5 24V26.5H31.5V24C31.5 23.575 31.6446 23.2188 31.9338 22.9312C32.2229 22.6438 32.5813 22.5 33.0087 22.5C33.4363 22.5 33.7917 22.6438 34.075 22.9312C34.3583 23.2188 34.5 23.575 34.5 24V28.5C34.5 29.325 34.2063 30.0312 33.6187 30.6187C33.0312 31.2063 32.325 31.5 31.5 31.5H25.5Z" fill="#9A563A"/>
</svg>
