<svg width="48" height="48" viewBox="0 0 48 48" fill="none" xmlns="http://www.w3.org/2000/svg">
<path d="M38.8 19C37.9333 19 37.1833 18.6849 36.55 18.055C35.9167 17.425 35.6 16.675 35.6 15.8049C35.6 14.9349 35.9167 14.1833 36.55 13.55C37.1833 12.9166 37.9333 12.6 38.8 12.6C39.6667 12.6 40.4167 12.9166 41.05 13.55C41.6833 14.1833 42 14.9349 42 15.8049C42 16.675 41.6833 17.425 41.05 18.055C40.4167 18.6849 39.6667 19 38.8 19ZM9.2 19C8.33333 19 7.58333 18.6849 6.95 18.055C6.31667 17.425 6 16.675 6 15.8049C6 14.9349 6.31667 14.1833 6.95 13.55C7.58333 12.9166 8.33333 12.6 9.2 12.6C10.0667 12.6 10.8167 12.9166 11.45 13.55C12.0833 14.1833 12.4 14.9349 12.4 15.8049C12.4 16.675 12.0833 17.425 11.45 18.055C10.8167 18.6849 10.0667 19 9.2 19ZM18.31 16C18.03 16 17.8083 15.8833 17.645 15.65C17.4817 15.4166 17.4167 15.1666 17.45 14.9C17.55 14 17.4833 13.2083 17.25 12.525C17.0167 11.8416 16.55 11.0333 15.85 10.1C14.95 8.93328 14.3333 7.82495 14 6.77495C13.6667 5.72495 13.5667 4.48328 13.7 3.04995C13.7333 2.74995 13.8556 2.49162 14.0667 2.27495C14.2778 2.05828 14.5389 1.94995 14.85 1.94995C15.1167 1.94995 15.35 2.06375 15.55 2.29135C15.75 2.51895 15.8333 2.78848 15.8 3.09995C15.7 4.39995 15.7583 5.40828 15.975 6.12495C16.1917 6.84162 16.65 7.68328 17.35 8.64995C18.1798 9.73025 18.7622 10.767 19.0974 11.7602C19.4324 12.7534 19.5667 13.7833 19.5 14.85C19.4797 15.1854 19.358 15.4609 19.1348 15.6765C18.9116 15.8921 18.6367 16 18.31 16ZM24.3154 16C24.0385 16 23.8167 15.8876 23.65 15.6629C23.4833 15.4381 23.4167 15.1838 23.45 14.9C23.55 14 23.475 13.1916 23.225 12.475C22.975 11.7583 22.5167 10.9666 21.85 10.1C20.9833 8.93328 20.3833 7.83328 20.05 6.79995C19.7167 5.76662 19.6167 4.51662 19.75 3.04995C19.7833 2.74995 19.9029 2.49162 20.1088 2.27495C20.3147 2.05828 20.5618 1.94995 20.85 1.94995C21.1167 1.94995 21.3333 2.06662 21.5 2.29995C21.6667 2.53328 21.7333 2.78328 21.7 3.04995C21.6 4.21662 21.675 5.20828 21.925 6.02495C22.175 6.84162 22.6667 7.71662 23.4 8.64995C24.2298 9.73025 24.8123 10.767 25.1474 11.7602C25.4825 12.7534 25.6 13.8 25.5 14.9C25.4667 15.2 25.3417 15.4583 25.125 15.675C24.9083 15.8916 24.6385 16 24.3154 16ZM30.3154 16C30.0385 16 29.8167 15.8876 29.65 15.6629C29.4833 15.4381 29.4167 15.1838 29.45 14.9C29.55 14 29.475 13.1916 29.225 12.475C28.975 11.7583 28.5167 10.9666 27.85 10.1C26.9833 8.93328 26.3833 7.83328 26.05 6.79995C25.7167 5.76662 25.6167 4.51662 25.75 3.04995C25.7833 2.74995 25.903 2.49162 26.1089 2.27495C26.3147 2.05828 26.5618 1.94995 26.85 1.94995C27.1115 1.94995 27.3269 2.05602 27.4961 2.26815C27.6654 2.48025 27.7333 2.72418 27.7 2.99995C27.6 4.13328 27.6833 5.12495 27.95 5.97495C28.2167 6.82495 28.7 7.71662 29.4 8.64995C30.2298 9.73025 30.8123 10.767 31.1474 11.7602C31.4825 12.7534 31.6 13.8 31.5 14.9C31.4667 15.2 31.3417 15.4583 31.125 15.675C30.9083 15.8916 30.6385 16 30.3154 16ZM7 44C6.175 44 5.46875 43.7062 4.88125 43.1187C4.29375 42.5312 4 41.825 4 41V27.5C4 27.075 4.14375 26.7187 4.43125 26.4312C4.71875 26.1437 5.075 26 5.5 26V24.85C5.5 23.85 5.925 23.0166 6.775 22.35C7.625 21.6833 8.53333 21.35 9.5 21.35C10.0215 21.35 10.5185 21.45 10.9911 21.65C11.4637 21.85 11.8833 22.1333 12.25 22.5L14.4 24.95C14.5667 25.15 14.75 25.3333 14.95 25.5C15.15 25.6666 15.3731 25.8333 15.6194 26H32.4C32.6333 25.8333 32.85 25.6666 33.05 25.5C33.25 25.3333 33.4333 25.15 33.6 24.95L35.75 22.5C36.1167 22.1333 36.5363 21.85 37.0089 21.65C37.4815 21.45 37.9785 21.35 38.5 21.35C39.4667 21.35 40.3083 21.6916 41.025 22.375C41.7417 23.0583 42.2333 23.8833 42.5 24.85V26C42.9333 26 43.2917 26.1437 43.575 26.4312C43.8583 26.7187 44 27.075 44 27.5V41C44 41.825 43.7062 42.5312 43.1188 43.1187C42.5312 43.7062 41.825 44 41 44H7ZM7 34.5H41V29H7V34.5ZM7 41H41V37.5H7V41Z" fill="#9A563A"/>
</svg>
