<svg width="101" height="100" viewBox="0 0 101 100" fill="none" xmlns="http://www.w3.org/2000/svg">
<g clip-path="url(#clip0_118_8034)">
<g clip-path="url(#clip1_118_8034)">
<path d="M49.265 77.1838C49.9672 77.1838 51.8527 76.4682 53.8935 76.4682C56.4259 76.4682 59.119 77.1838 59.119 77.1838C59.119 77.1838 54.6787 73.4098 53.1037 73.4098C51.5312 73.4098 49.265 74.8773 49.265 74.8773C49.265 74.8773 47.4631 73.5019 46.1668 73.4098C44.8695 73.3173 39.41 77.1838 39.41 77.1838C39.41 77.1838 42.658 76.3478 45.5079 76.3478C47.1227 76.3478 48.6952 77.1863 49.265 77.1838Z" fill="#A3A2A2"/>
<path d="M49.265 82.3054C55.4182 82.3054 59.119 77.1838 59.119 77.1838C59.119 77.1838 56.928 78.507 53.7148 78.6827C52.3792 78.7529 50.8684 78.5021 49.265 78.5021C47.9423 78.5021 46.5958 78.8559 45.4467 78.8041C41.8444 78.6384 39.4105 77.1838 39.4105 77.1838C39.4105 77.1838 43.1099 82.3029 49.265 82.3054Z" fill="#A3A2A2"/>
<path d="M17.1149 41.6239C17.3184 35.001 19.5313 28.8902 23.163 23.8482C30.7911 21.5174 40.8063 20.9983 50.5568 23.3322C44.9615 24.5429 39.7384 27.2575 35.3698 31.3733C31.1285 35.3673 28.0532 40.3605 26.5603 45.3153L26.5414 45.3631C27.3291 45.8045 28.2612 46.2996 29.2818 46.7734C33.2419 39.719 40.7018 34.9538 49.265 34.9538C53.5078 34.9538 57.4718 36.1431 60.8831 38.1774C60.5427 39.6414 60.478 41.1806 60.7552 42.659L61.0448 44.0777L60.8149 44.5435C60.0038 46.5121 60.0038 48.6674 60.6432 50.6917C60.9289 50.3623 61.4031 50.0926 61.9913 49.8393C61.6211 48.3827 61.6425 46.7515 62.2973 45.1546C63.6031 41.9698 70.9769 45.5114 70.9769 45.5114C70.9769 45.5114 63.9793 39.4483 62.3287 42.3624C61.3812 37.311 64.9367 31.4689 70.3942 32.6712C66.0753 36.6442 72.4743 43.9772 72.4743 43.9772C72.4743 43.9772 70.0951 35.9814 71.8607 34.0038C74.4767 31.0643 80.4697 35.5763 80.509 39.9116C78.4413 39.7564 76.4727 42.458 75.3924 44.2539L75.4436 44.2226C77.672 42.9994 79.6311 42.5082 81.2061 42.1151C81.7889 41.9703 82.3109 41.8424 82.7682 41.6867C83.3275 41.4971 83.9854 40.9606 84.7149 40.1545C83.446 21.6875 68.0474 7.03345 49.265 7.03345C31.0479 7.03345 16.0046 20.8023 13.947 38.479C15.1841 40.2042 16.253 41.2751 17.1149 41.6239ZM81.3957 41.5926L81.4127 41.7792L81.2867 41.5846L81.3957 41.5926ZM62.9691 33.8386C62.6885 34.179 62.4815 34.5791 62.2416 34.9563C58.4402 32.9603 54.0138 31.973 49.2645 31.973C44.8023 31.973 40.6088 32.8279 36.9667 34.5885C37.214 34.3422 37.4384 34.0804 37.6922 33.8411C43.509 28.3652 50.9788 25.5904 58.7448 26.0398C61.8301 27.3685 64.7805 29.0783 67.5363 31.1275C65.7986 31.4714 64.1983 32.3522 62.9691 33.8386ZM49.265 10.4223C64.5839 10.4223 77.4093 21.1879 80.6364 35.5479C79.0703 33.2166 76.4941 31.4599 74.008 31.4599L73.3193 31.5376C60.2436 19.3577 41.1223 16.7411 26.9683 19.4532C32.7577 13.8733 40.6088 10.4223 49.265 10.4223Z" fill="#A3A2A2"/>
<path d="M67.4537 55.9033H67.4483C66.5058 55.9033 65.4085 55.7073 64.3491 55.3893C64.9348 55.7535 65.5593 56.0725 66.2664 56.2875L68.2201 56.6742C68.2758 57.2086 68.4012 57.7152 68.6197 58.1715C69.1541 59.332 70.1797 60.1023 71.375 60.6114C71.5821 60.165 71.7861 59.6908 72.015 59.1658C71.1247 58.7871 70.4161 58.2342 70.0762 57.4967C69.812 56.9255 69.7787 56.187 69.8369 55.4057C68.9869 55.6689 68.1668 55.8894 67.4537 55.9033Z" fill="#A3A2A2"/>
<path d="M65.9126 79.9227C65.5229 79.9227 64.992 79.8192 64.465 79.4375C59.7181 86.0196 53.7307 90.7222 49.265 90.7222C44.9038 90.7222 39.0816 86.2401 34.386 79.8954L34.0854 79.9227C33.1543 79.9227 32.2815 79.4216 31.3967 78.5125C32.2422 79.9809 32.9309 81.3335 33.3569 82.5422C38.8721 88.9631 45.4611 92.9665 49.265 92.9665C53.6819 92.9665 61.8395 87.5692 67.7234 79.2584C67.1323 79.6834 66.5331 79.9227 65.9126 79.9227Z" fill="#A3A2A2"/>
<path d="M23.6557 65.4916C24.8525 64.8317 26.1324 67.302 27.5486 69.8533C29.8128 73.9403 33.019 80.2114 34.9498 78.1039C36.8253 76.0617 30.5946 68.0942 27.7959 62.147C26.737 59.8953 24.946 56.2218 25.3486 53.989C25.7527 51.7531 30.3925 54.4627 32.5741 54.509C34.7597 54.5582 38.4406 53.2052 38.3844 51.772C38.3531 50.9937 34.4134 50.2587 30.717 48.8863C27.6208 47.7442 24.7569 45.9294 23.8791 45.4472C20.9466 43.8324 18.4281 43.5721 16.7805 43.0073C15.3572 42.5212 13.8669 40.9078 12.268 38.5347L0 45.6199C1.64416 48.5658 2.91559 51.4073 3.25647 53.6048C4.35722 60.7258 7.38876 64.0395 8.37008 67.072C9.48774 70.542 14.2844 81.9182 16.8661 82.2855C19.8025 82.7055 11.8181 70.5848 13.9196 69.7876C14.6576 69.5044 16.0539 72.8366 17.6045 76.1672C19.7155 80.706 22.6943 87.3722 24.3046 86.6482C28.4518 84.7741 15.508 68.7928 18.2748 68.3684C19.2611 68.2186 21.8906 72.3578 24.1418 76.5344C26.6862 81.2464 30.3472 87.5847 32.1024 85.6843C33.5883 84.0774 29.6371 78.3647 27.0047 73.9348C24.6718 69.9976 22.6719 66.03 23.6557 65.4916Z" fill="#A3A2A2"/>
<path d="M87.7305 38.5347C86.1336 40.9034 84.6422 42.5182 83.2205 43.0073C81.5714 43.5721 79.0544 43.8324 76.1194 45.4472C75.2416 45.9319 72.3767 47.7442 69.284 48.8863C65.5856 50.2553 61.6429 50.9937 61.6101 51.772C61.5583 53.2052 65.2373 54.5582 67.4274 54.509C69.605 54.4627 74.2448 51.7531 74.6489 53.989C75.0535 56.2213 73.2595 59.8978 72.2026 62.147C69.4034 68.0892 63.1731 76.0617 65.0492 78.1039C66.98 80.2114 70.1852 73.9403 72.4489 69.8533C73.8666 67.299 75.1465 64.8317 76.3428 65.4916C77.3276 66.03 75.3297 69.9976 72.9973 73.9323C70.3618 78.3652 66.4142 84.0779 67.9011 85.6823C69.6537 87.5792 73.3173 81.243 75.8596 76.5349C78.1109 72.3578 80.7364 68.2166 81.7286 68.3659C84.4915 68.7908 71.5492 84.7696 75.6944 86.6432C77.3052 87.3672 80.2855 80.7065 82.395 76.1652C83.9495 72.8371 85.3439 69.5044 86.0829 69.7826C88.1814 70.5823 80.2029 82.7 83.1324 82.2835C85.7141 81.9162 90.5117 70.5385 91.6284 67.0701C92.6117 64.037 95.6418 60.7198 96.742 53.6028C97.0859 51.4048 98.3548 48.5633 99.9995 45.6159L87.7305 38.5347Z" fill="#A3A2A2"/>
<path d="M57.1509 56.9081C55.3853 57.7575 54.928 59.658 54.8185 60.4099C54.711 61.1613 56.3114 60.6895 56.3632 60.2108C56.3985 59.8759 56.2731 59.3584 57.0957 58.5851L57.1235 59.0673C57.7535 60.1591 59.1519 60.5353 60.2392 59.9038C61.331 59.2743 61.7032 57.8879 61.0827 56.7996C62.7761 56.5329 64.5869 56.4975 64.5869 56.4975C64.5869 56.4975 59.5186 55.759 57.1509 56.9081Z" fill="#A3A2A2"/>
<path d="M63.9221 59.4678C63.9221 59.4678 62.3182 60.2082 60.9075 60.5028C59.6385 60.7636 56.4746 60.9079 56.4746 60.9079C56.4746 60.9079 59.1812 61.3 60.6129 61.3C62.0465 61.298 63.9221 59.4678 63.9221 59.4678Z" fill="#A3A2A2"/>
<path d="M38.2888 59.9037C39.3791 60.5357 40.7795 60.1595 41.407 59.0672L41.4314 58.585C42.2539 59.3583 42.1285 59.8758 42.1658 60.2107C42.2191 60.6875 43.819 61.1582 43.71 60.4098C43.602 59.6579 43.1447 57.7574 41.3791 56.908C39.0084 55.7585 33.9456 56.4969 33.9456 56.4969C33.9456 56.4969 35.7544 56.5348 37.4483 56.799C36.8253 57.8878 37.201 59.2767 38.2888 59.9037Z" fill="#A3A2A2"/>
<path d="M42.0539 60.9079C42.0539 60.9079 38.8905 60.7636 37.6206 60.5028C36.2088 60.2082 34.606 59.4678 34.606 59.4678C34.606 59.4678 36.482 61.298 37.9157 61.298C39.3483 61.298 42.0539 60.9079 42.0539 60.9079Z" fill="#A3A2A2"/>
</g>
</g>
<defs>
<clipPath id="clip0_118_8034">
<rect width="100" height="100" fill="white" transform="translate(0.5)"/>
</clipPath>
<clipPath id="clip1_118_8034">
<rect width="100" height="100" fill="white"/>
</clipPath>
</defs>
</svg>
