<svg width="101" height="100" viewBox="0 0 101 100" fill="none" xmlns="http://www.w3.org/2000/svg">
<g clip-path="url(#clip0_118_7999)">
<path d="M49.1444 81.6333C48.4819 81.6333 46.6515 80.6604 44.77 80.6604C41.4571 80.6604 37.674 81.6367 37.674 81.6333C37.674 81.6333 40.5062 83.3259 44.6982 83.5188C46.0353 83.579 47.6058 83.1673 49.1404 83.1673C51.0038 83.1673 52.7654 83.4649 54.3214 83.3775C58.0582 83.173 60.6079 81.6333 60.6079 81.6333C60.6079 81.6333 57.471 80.8005 54.527 80.8005C52.1556 80.8 49.9609 81.6333 49.1444 81.6333Z" fill="#A3A2A2"/>
<path d="M49.1444 74.8423C41.9864 74.8423 36.1643 81.6332 36.1643 81.6332C36.1643 81.6332 41.9858 89.8342 49.1444 89.8342C56.3048 89.8342 62.1228 81.6332 62.1228 81.6332C62.1228 81.6332 56.3048 74.8423 49.1444 74.8423ZM49.1444 87.5931C41.9823 87.5931 37.6763 81.6332 37.6763 81.6332C37.6763 81.6332 44.03 77.1337 45.5402 77.2414C47.0482 77.3491 49.145 78.9491 49.145 78.9491C49.145 78.9491 51.7793 77.2414 53.6121 77.2414C55.4449 77.2414 60.612 81.6332 60.612 81.6332C60.612 81.6332 56.3048 87.5931 49.1444 87.5931Z" fill="#A3A2A2"/>
<path d="M45.2021 60.2188C45.2021 55.6939 41.5214 52.0184 37.0011 52.0184C32.475 52.0184 28.8019 55.6939 28.8019 60.2188C28.8019 64.7403 32.4779 68.4163 37.0011 68.4163C41.5214 68.4163 45.2021 64.7403 45.2021 60.2188ZM39.9677 58.0391C42.0229 59.0276 42.5551 61.2392 42.6796 62.1142C42.8064 62.9886 40.9447 62.4396 40.8827 61.8825C40.8404 61.4928 40.9858 60.8906 40.0285 59.9907L40.0008 60.5518C39.2671 61.8223 37.6381 62.2601 36.3722 61.5252C35.1029 60.7927 34.6691 59.1794 35.3895 57.9129C33.4224 57.6025 31.3134 57.5614 31.3134 57.5614C31.3134 57.5614 37.209 56.7015 39.9677 58.0391ZM32.0864 61.0174C32.0864 61.0174 33.9517 61.879 35.5945 62.2219C37.0735 62.5253 40.7536 62.6932 40.7536 62.6932C40.7536 62.6932 37.6057 63.1496 35.9385 63.1496C34.2707 63.1472 32.0864 61.0174 32.0864 61.0174Z" fill="#A3A2A2"/>
<path d="M90.4324 43.5592C90.4701 42.8417 90.5477 42.1346 90.5477 41.4044C90.5477 18.5735 71.9725 0 49.1444 0C26.3164 0 7.74121 18.577 7.74121 41.4044C7.74121 53.6161 13.0827 64.5758 21.5211 72.1583C26.9175 88.2788 42.1161 99.9994 49.1444 99.9994C56.1722 99.9994 71.3696 88.2788 76.769 72.1583C80.1086 69.154 82.9414 65.599 85.1726 61.6636C85.6863 61.2768 86.1246 60.8361 86.4148 60.3201L87.3911 58.6211L86.8873 58.3617L86.8937 58.346L88.0125 57.6998C90.44 56.3024 91.879 52.6212 92.1899 49.7878C92.4807 47.1211 91.8454 44.9252 90.4324 43.5592ZM86.5352 40.2161L86.5543 40.4333L86.4084 40.2068L86.5352 40.2161ZM49.1444 3.94355C66.9709 3.94355 81.8962 16.4714 85.651 33.182C83.8292 30.469 80.8313 28.4248 77.9382 28.4248L77.1367 28.5152C61.9202 14.3416 39.6701 11.2962 23.1981 14.4522C29.9351 7.96007 39.0725 3.94355 49.1444 3.94355ZM61.9144 61.5246C60.6468 62.26 59.019 61.8223 58.2887 60.5512L58.2569 59.99C57.2997 60.8899 57.4456 61.4922 57.4045 61.8819C57.3442 62.4367 55.4813 62.9845 55.6087 62.1135C55.7356 61.2385 56.2666 59.027 58.32 58.0385C61.077 56.7008 66.9703 57.5602 66.9703 57.5602C66.9703 57.5602 64.8665 57.6042 62.8953 57.9117C63.6186 59.1787 63.1826 60.795 61.9144 61.5246ZM66.2025 61.0173C66.2025 61.0173 64.0182 63.1472 62.3527 63.1472C60.678 63.1472 57.5348 62.6903 57.5348 62.6903C57.5348 62.6903 61.2171 62.5258 62.6938 62.2155C64.3349 61.879 66.2025 61.0173 66.2025 61.0173ZM70.4072 28.0357C68.3845 28.4382 66.5279 29.4631 65.0918 31.1934C64.7663 31.5895 64.5249 32.0551 64.2458 32.494C59.8221 30.1713 54.6706 29.0224 49.1444 29.0224C43.9518 29.0224 39.0725 30.0173 34.8342 32.0661C35.1214 31.7795 35.382 31.4749 35.6785 31.1963C42.4474 24.8241 51.1405 21.5951 60.1789 22.1181C63.7674 23.6607 67.2008 25.651 70.4072 28.0357ZM19.8145 64.6424C14.7394 58.2482 11.683 50.1798 11.683 41.4073C11.683 33.2526 14.3312 25.7252 18.7698 19.5701C27.6477 16.8577 39.3024 16.2537 50.6506 18.9696C44.1371 20.3779 38.0602 23.5374 32.9759 28.3276C28.0404 32.9741 24.4616 38.7858 22.7244 44.5511C20.7231 48.9162 19.5672 54.2172 19.5672 60.5674C19.5678 61.9421 19.6553 63.3047 19.8145 64.6424ZM49.1444 97.3883C39.0916 97.3883 22.374 76.9687 22.374 59.6924C22.374 44.6681 34.357 32.4906 49.1444 32.4906C54.0805 32.4906 58.6941 33.8746 62.666 36.2419C62.2688 37.9455 62.1935 39.7366 62.5172 41.4571L62.8531 43.1081L62.5855 43.6501C61.4575 46.3891 61.6034 49.4554 62.871 52.1805C62.3603 52.0815 61.831 52.0219 61.2901 52.0219C56.7692 52.0219 53.0891 55.6985 53.0891 60.2194C53.0891 64.7437 56.7692 68.4197 61.2901 68.4197C65.8185 68.4197 69.4876 64.7437 69.4876 60.2194C69.4876 59.195 69.2826 58.2267 68.9363 57.3199L71.2046 57.7664C71.2747 58.3906 71.4212 58.9778 71.6673 59.5158C72.4189 61.1384 73.9819 62.139 75.7423 62.6938C74.0062 79.2439 58.6211 97.3883 49.1444 97.3883ZM70.5838 54.5976C70.5531 54.2548 71.0245 53.6184 71.8265 52.8644C71.5341 53.8628 71.3059 54.8924 71.211 55.8907L70.5838 54.5976ZM78.4738 64.6424C78.5323 64.1768 78.5248 63.6985 78.5566 63.2259C78.8548 63.2451 79.1519 63.2613 79.4386 63.2613C79.1073 63.717 78.8218 64.1988 78.4738 64.6424ZM87.0738 56.0835C83.5257 49.2116 78.5132 47.9225 78.5132 47.9225C78.5132 47.9225 80.4444 57.174 84.7922 59.3953C83.1777 62.2155 74.9252 62.1141 73.3657 58.73C71.8086 55.3452 76.0341 47.7459 76.0341 47.7459C76.0341 47.7459 67.3462 52.1967 68.9016 55.4066C65.5522 54.7499 62.2473 49.4015 64.3129 44.3566C65.8307 40.6522 74.4144 44.7741 74.4144 44.7741C74.4144 44.7741 66.2737 37.7185 64.354 41.1091C63.2451 35.2308 67.3867 28.4324 73.7363 29.8314C68.7087 34.4548 76.1586 42.9882 76.1586 42.9882C76.1586 42.9882 73.3848 33.6835 75.4388 31.3822C78.4871 27.9616 85.4645 33.2127 85.5056 38.2571C81.9344 37.9878 78.5566 45.1047 78.5566 45.1047C78.5566 45.1047 86.3418 42.3402 89.0907 44.8389C91.8269 47.3493 89.7746 54.5276 87.0738 56.0835ZM84.0533 54.7175C83.9207 55.0661 83.7973 55.4147 83.6514 55.7575C82.9102 54.6799 82.2413 53.3648 81.6993 51.986C82.4608 52.6774 83.2646 53.5894 84.0533 54.7175ZM82.9507 42.1474L82.5992 42.1763L82.8216 41.9279L82.9507 42.1474Z" fill="#A3A2A2"/>
</g>
<defs>
<clipPath id="clip0_118_7999">
<rect width="100" height="100" fill="white" transform="translate(0.5)"/>
</clipPath>
</defs>
</svg>
